<svg xmlns="http://www.w3.org/2000/svg" xmlns:xlink="http://www.w3.org/1999/xlink" width="500" zoomAndPan="magnify" viewBox="0 0 375 374.999991" height="500" preserveAspectRatio="xMidYMid meet" version="1.0"><defs><clipPath id="id1"><path d="M 89 35.15625 L 199 35.15625 L 199 149 L 89 149 Z M 89 35.15625 " clip-rule="nonzero"/></clipPath></defs><rect x="-37.5" width="450" fill="rgb(100%, 100%, 100%)" y="-37.499999" height="449.999989" fill-opacity="1"/><rect x="-37.5" width="450" fill="rgb(100%, 100%, 100%)" y="-37.499999" height="449.999989" fill-opacity="1"/><rect x="-37.5" width="450" fill="rgb(100%, 100%, 100%)" y="-37.499999" height="449.999989" fill-opacity="1"/><rect x="-37.5" width="450" fill="rgb(100%, 100%, 100%)" y="-37.499999" height="449.999989" fill-opacity="1"/><path fill="rgb(100%, 100%, 100%)" d="M 121.308594 201.09375 C 121.308594 213.632812 117.09375 241.457031 121.308594 252.890625 C 129.578125 275.339844 128.261719 283.824219 120.527344 301.871094 C 120.527344 301.871094 111.570312 300.023438 106.675781 308.636719 C 104.894531 311.765625 100.390625 322.816406 108.605469 322.816406 C 116.683594 322.816406 132.773438 321.765625 137.519531 321.765625 C 144.605469 321.765625 147.183594 315.324219 147.183594 305.011719 C 147.183594 295.992188 164.667969 275.523438 160.554688 268.277344 C 154.445312 257.484375 153.3125 256.269531 155 249.90625 C 158.582031 236.410156 165.289062 222.097656 165.871094 203.019531 C 166.355469 187.308594 156.277344 158.554688 134.035156 158.554688 C 118.105469 158.554688 121.308594 165.246094 121.308594 201.09375 " fill-opacity="1" fill-rule="nonzero"/><path fill="rgb(100%, 100%, 100%)" d="M 149.308594 291.933594 C 145.464844 286.519531 141.617188 280.023438 134.980469 277.714844 C 132.367188 276.808594 129.679688 276.453125 126.917969 276.289062 C 126.429688 284.320312 124.269531 291.164062 120.046875 301.019531 C 120.046875 301.019531 111.074219 300.027344 106.019531 308.910156 C 104.1875 312.140625 99.542969 323.542969 108.015625 323.542969 C 116.351562 323.542969 132.140625 323.578125 137.039062 323.578125 C 144.351562 323.578125 147.816406 315.8125 147.816406 305.171875 C 147.816406 302.464844 149.195312 297.886719 151.253906 293.808594 C 150.523438 292.917969 149.976562 292.875 149.308594 291.933594 " fill-opacity="1" fill-rule="nonzero"/><path fill="rgb(13.729858%, 12.159729%, 12.548828%)" d="M 106.753906 322.933594 C 106.507812 321.433594 106.785156 319.9375 107.300781 318.539062 C 107.835938 317.148438 108.675781 315.832031 109.804688 314.757812 C 110.929688 313.683594 112.351562 312.875 113.863281 312.527344 C 115.375 312.175781 116.949219 312.257812 118.332031 312.863281 C 116.953125 313.46875 115.753906 314 114.6875 314.65625 C 113.621094 315.296875 112.679688 316.027344 111.800781 316.863281 C 110.917969 317.699219 110.101562 318.628906 109.285156 319.648438 C 108.464844 320.664062 107.667969 321.75 106.753906 322.933594 " fill-opacity="1" fill-rule="nonzero"/><path fill="rgb(13.729858%, 12.159729%, 12.548828%)" d="M 104.921875 314.835938 C 104.660156 313.542969 104.84375 312.191406 105.363281 310.953125 C 105.894531 309.710938 106.835938 308.582031 108.023438 307.820312 C 109.210938 307.050781 110.589844 306.671875 111.902344 306.636719 C 113.222656 306.597656 114.492188 306.863281 115.671875 307.464844 C 114.480469 308.066406 113.359375 308.445312 112.339844 308.875 C 111.316406 309.296875 110.414062 309.730469 109.597656 310.253906 C 108.777344 310.785156 108.023438 311.402344 107.28125 312.175781 C 106.527344 312.953125 105.820312 313.835938 104.921875 314.835938 " fill-opacity="1" fill-rule="nonzero"/><path fill="rgb(13.729858%, 12.159729%, 12.548828%)" d="M 116.035156 323.417969 C 115.773438 322.121094 115.953125 320.773438 116.480469 319.535156 C 117.011719 318.292969 117.953125 317.160156 119.140625 316.398438 C 120.328125 315.628906 121.703125 315.25 123.015625 315.21875 C 124.335938 315.179688 125.601562 315.445312 126.789062 316.042969 C 125.597656 316.644531 124.476562 317.019531 123.460938 317.453125 C 122.433594 317.871094 121.53125 318.3125 120.707031 318.835938 C 119.894531 319.367188 119.140625 319.984375 118.394531 320.757812 C 117.644531 321.53125 116.9375 322.414062 116.035156 323.417969 " fill-opacity="1" fill-rule="nonzero"/><path fill="rgb(100%, 100%, 100%)" d="M 274.050781 241.753906 C 253.6875 237.375 205.078125 232.671875 180.339844 273.398438 C 180.105469 273.78125 179.871094 274.15625 179.632812 274.519531 L 179.601562 274.417969 C 179.503906 274.621094 179.398438 274.820312 179.296875 275.015625 C 179.113281 275.292969 178.921875 275.574219 178.742188 275.84375 L 178.746094 276.074219 C 165.40625 300.257812 126.535156 297.988281 126.535156 297.988281 C 121.617188 281.035156 94.761719 278.539062 99.710938 295.574219 C 101.523438 301.820312 104.25 311.207031 104.25 311.207031 C 108.757812 323.765625 116.375 322.554688 124.125 321.347656 C 127.375 320.835938 130.648438 320.332031 133.726562 320.835938 C 146.847656 323.003906 163.675781 324.117188 173.339844 322.945312 C 175.007812 322.738281 182.054688 320.804688 183.160156 319.839844 C 183.167969 319.851562 184.34375 319.347656 185.835938 318.851562 C 187.738281 318.207031 190.160156 317.566406 191.3125 317.988281 C 249.851562 339.492188 298.984375 327.339844 304.980469 287.636719 C 307.847656 268.601562 292.59375 245.734375 274.050781 241.753906 " fill-opacity="1" fill-rule="nonzero"/><path fill="rgb(100%, 100%, 100%)" d="M 152.375 298.015625 C 151.914062 298 151.671875 297.988281 151.671875 297.988281 C 151.503906 297.421875 151.320312 296.882812 151.109375 296.351562 C 151.53125 296.914062 151.949219 297.464844 152.375 298.015625 " fill-opacity="1" fill-rule="nonzero"/><path fill="rgb(100%, 100%, 100%)" d="M 150.972656 302.75 C 150.535156 300.679688 149.960938 297.632812 149.417969 295.585938 C 137.65625 296.875 126.542969 296.867188 126.542969 296.867188 C 121.523438 279.566406 93.683594 278.144531 98.734375 295.523438 C 100.585938 301.90625 103.371094 311.480469 103.371094 311.480469 C 108 324.390625 116.015625 323.277344 124.082031 322.171875 C 127.386719 321.71875 130.703125 321.261719 133.789062 321.773438 C 138.625 322.570312 144.96875 323.058594 151.269531 322.820312 C 152.367188 316.15625 152.421875 309.632812 150.972656 302.75 " fill-opacity="1" fill-rule="nonzero"/><path fill="rgb(13.729858%, 12.159729%, 12.548828%)" d="M 98.675781 288.40625 C 100.050781 287.757812 101.558594 287.601562 103.050781 287.707031 C 104.539062 287.832031 106.039062 288.269531 107.382812 289.054688 C 108.726562 289.832031 109.890625 290.976562 110.652344 292.332031 C 111.414062 293.683594 111.773438 295.222656 111.578125 296.71875 C 110.609375 295.5625 109.765625 294.558594 108.839844 293.71875 C 107.925781 292.871094 106.960938 292.171875 105.914062 291.558594 C 104.871094 290.945312 103.746094 290.417969 102.539062 289.921875 C 101.335938 289.417969 100.074219 288.957031 98.675781 288.40625 " fill-opacity="1" fill-rule="nonzero"/><path fill="rgb(13.729858%, 12.159729%, 12.548828%)" d="M 105.945312 284.386719 C 107.105469 283.769531 108.453125 283.570312 109.792969 283.726562 C 111.132812 283.894531 112.480469 284.484375 113.542969 285.410156 C 114.609375 286.332031 115.359375 287.546875 115.757812 288.804688 C 116.15625 290.066406 116.261719 291.355469 116.019531 292.65625 C 115.101562 291.679688 114.429688 290.703125 113.734375 289.847656 C 113.054688 288.988281 112.371094 288.242188 111.632812 287.597656 C 110.902344 286.953125 110.101562 286.40625 109.15625 285.910156 C 108.199219 285.402344 107.152344 284.976562 105.945312 284.386719 " fill-opacity="1" fill-rule="nonzero"/><path fill="rgb(13.729858%, 12.159729%, 12.548828%)" d="M 99.628906 297.292969 C 100.792969 296.679688 102.140625 296.480469 103.476562 296.640625 C 104.820312 296.800781 106.171875 297.390625 107.226562 298.320312 C 108.296875 299.242188 109.039062 300.457031 109.449219 301.707031 C 109.84375 302.972656 109.953125 304.261719 109.707031 305.566406 C 108.789062 304.589844 108.117188 303.613281 107.421875 302.757812 C 106.734375 301.894531 106.058594 301.148438 105.324219 300.507812 C 104.585938 299.867188 103.785156 299.320312 102.839844 298.816406 C 101.882812 298.308594 100.839844 297.882812 99.628906 297.292969 " fill-opacity="1" fill-rule="nonzero"/><path fill="rgb(95.289612%, 66.668701%, 27.449036%)" d="M 309.171875 318.707031 C 340.679688 276.730469 323.425781 201.773438 258.242188 173.21875 C 192.039062 144.210938 198.660156 107.472656 198.660156 107.472656 L 120.980469 140.683594 C 120.980469 140.683594 120.980469 176.378906 120.980469 223.96875 C 120.980469 253.925781 154.242188 312 176.535156 318.707031 L 309.171875 318.707031 " fill-opacity="1" fill-rule="nonzero"/><path fill="rgb(93.728638%, 46.669006%, 23.139954%)" d="M 258.617188 173.054688 C 192.417969 144.050781 199.035156 107.316406 199.035156 107.316406 L 178.164062 116.238281 C 179.082031 122.933594 184.839844 153.332031 215.074219 171.605469 C 249.207031 192.230469 278.625 210.277344 278.625 248.941406 C 278.625 274.464844 288.621094 302.792969 302.527344 318.550781 L 309.550781 318.550781 C 341.0625 276.574219 323.804688 201.609375 258.617188 173.054688 " fill-opacity="1" fill-rule="nonzero"/><path fill="rgb(95.289612%, 66.668701%, 27.449036%)" d="M 329.996094 243.859375 C 329.996094 243.859375 342.988281 217.789062 333.925781 189.804688 C 324.867188 161.816406 353.957031 144.746094 359.226562 140.324219 C 359.226562 140.324219 346.535156 168.679688 352.496094 183.519531 C 363.238281 210.269531 371.851562 260.78125 320.371094 288.066406 C 320.371094 288.066406 313.210938 257.152344 329.996094 243.859375 " fill-opacity="1" fill-rule="nonzero"/><path fill="rgb(100%, 100%, 100%)" d="M 333.925781 189.804688 C 334.019531 190.023438 341.085938 191.050781 343.984375 190.105469 C 350.804688 187.882812 352.820312 184.78125 352.496094 183.519531 C 348.042969 166.4375 360.765625 137.757812 360.765625 137.757812 C 355.496094 142.1875 320.417969 157.058594 333.925781 189.804688 " fill-opacity="1" fill-rule="nonzero"/><path fill="rgb(95.289612%, 66.668701%, 27.449036%)" d="M 119.589844 36.054688 C 119.589844 36.054688 109.304688 37.574219 98.296875 42.296875 C 85.863281 47.628906 72.117188 54.304688 64.332031 60.652344 C 57.429688 66.285156 55.046875 70.621094 57.398438 78.265625 C 61.507812 91.597656 71.226562 124.074219 76.421875 141.484375 C 78.492188 148.417969 82.980469 151.167969 87.128906 147.910156 C 95.125 141.644531 106.925781 129.972656 107.445312 115.378906 C 108.238281 93.207031 119.589844 36.054688 119.589844 36.054688 " fill-opacity="1" fill-rule="nonzero"/><g clip-path="url(#id1)"><path fill="rgb(95.289612%, 66.668701%, 27.449036%)" d="M 194.542969 91.402344 L 187.117188 48.375 L 175.230469 36.542969 C 175.230469 36.542969 166.867188 35.195312 164.570312 35.4375 C 159 36.023438 149.457031 38.070312 143.84375 38.050781 L 143.84375 38.109375 L 143.839844 38.050781 C 138.230469 38.101562 128.671875 36.109375 123.097656 35.550781 C 120.796875 35.324219 106.769531 38.503906 100.617188 48.613281 C 94.9375 57.933594 93.433594 91.679688 93.433594 91.679688 C 89.984375 98.113281 85.039062 118.511719 96.945312 126.4375 C 116.15625 139.226562 120.449219 149.019531 137.28125 148.972656 L 144.144531 148.957031 L 144.148438 148.90625 L 144.152344 148.957031 L 151.003906 148.9375 C 167.84375 148.890625 172.074219 139.070312 191.21875 126.175781 C 203.085938 118.183594 198.027344 97.816406 194.542969 91.402344 " fill-opacity="1" fill-rule="nonzero"/></g><path fill="rgb(100%, 100%, 100%)" d="M 154.328125 99.898438 L 149.289062 37.628906 C 147.957031 37.765625 145.273438 37.925781 143.910156 37.96875 C 142.605469 38.015625 141.035156 38.074219 138.652344 37.75 L 133.679688 100.230469 C 120.980469 103.097656 109.519531 110.917969 109.546875 121.335938 C 109.5625 127.570312 117.964844 141.285156 122.695312 145.511719 C 126.765625 147.710938 131.191406 148.957031 137.214844 148.9375 L 144.070312 148.917969 L 144.082031 148.871094 L 144.082031 148.917969 L 150.9375 148.902344 C 156.960938 148.882812 161.375 147.613281 165.433594 145.398438 C 170.148438 141.144531 178.601562 124.820312 178.578125 118.59375 C 178.554688 108.210938 167.035156 102.039062 154.328125 99.898438 " fill-opacity="1" fill-rule="nonzero"/><path fill="rgb(13.729858%, 12.159729%, 12.548828%)" d="M 178.582031 86.199219 C 178.601562 89.84375 176.730469 92.796875 174.414062 92.804688 C 172.105469 92.816406 170.222656 89.863281 170.210938 86.21875 C 170.203125 82.578125 172.070312 79.617188 174.386719 79.613281 C 176.699219 79.605469 178.574219 82.554688 178.582031 86.199219 " fill-opacity="1" fill-rule="nonzero"/><path fill="rgb(13.729858%, 12.159729%, 12.548828%)" d="M 117.730469 86.363281 C 117.738281 90.003906 115.878906 92.964844 113.566406 92.96875 C 111.25 92.976562 109.367188 90.03125 109.359375 86.386719 C 109.347656 82.746094 111.214844 79.789062 113.527344 79.777344 C 115.835938 79.769531 117.722656 82.722656 117.730469 86.363281 " fill-opacity="1" fill-rule="nonzero"/><path fill="rgb(95.289612%, 66.668701%, 27.449036%)" d="M 174.742188 36.472656 C 174.742188 36.472656 175.316406 36.519531 192.425781 39.828125 C 203.585938 41.980469 216.652344 45.605469 229.335938 51.671875 C 237.019531 55.347656 236.125 66.3125 233.945312 74.109375 C 229.777344 89.039062 221.535156 122.933594 217.890625 138.019531 C 216.785156 142.636719 211.203125 144.070312 205.292969 140.972656 C 196.320312 136.273438 185.011719 127.691406 184.976562 114.316406 C 184.886719 81.347656 184.785156 70.621094 184.734375 52.648438 C 184.710938 44.976562 174.742188 36.472656 174.742188 36.472656 " fill-opacity="1" fill-rule="nonzero"/><path fill="rgb(13.729858%, 12.159729%, 12.548828%)" d="M 125.480469 98.492188 C 126.601562 93.847656 134.1875 92.714844 143.703125 92.683594 C 155.214844 92.65625 160.746094 93.769531 161.707031 98.390625 C 162.839844 103.832031 152 113.214844 143.066406 113.238281 C 135.804688 113.261719 124.128906 104.117188 125.480469 98.492188 " fill-opacity="1" fill-rule="nonzero"/><path fill="rgb(13.729858%, 12.159729%, 12.548828%)" d="M 182.535156 118.792969 L 182.265625 118.8125 L 182.265625 118.816406 C 179.535156 121.734375 176.546875 124.445312 173.335938 126.824219 C 171.71875 128.003906 170.050781 129.09375 168.289062 129.984375 C 166.539062 130.875 164.679688 131.574219 162.820312 131.789062 C 162.359375 131.839844 161.90625 131.859375 161.445312 131.839844 C 160.976562 131.824219 160.5 131.777344 160.039062 131.710938 C 159.097656 131.570312 158.1875 131.332031 157.292969 131.015625 C 155.511719 130.378906 153.84375 129.414062 152.308594 128.269531 C 150.777344 127.125 149.371094 125.800781 148.085938 124.367188 C 147.445312 123.648438 146.832031 122.90625 146.253906 122.136719 C 145.960938 121.757812 145.683594 121.371094 145.410156 120.980469 C 145.148438 120.601562 144.863281 120.175781 144.65625 119.824219 C 144.523438 119.601562 144.324219 119.390625 144.078125 119.25 C 143.933594 119.167969 144.640625 111.792969 144.640625 111.792969 L 141.65625 111.804688 C 141.65625 111.804688 141.988281 119.445312 141.769531 119.800781 L 141.75 119.835938 C 141.535156 120.179688 141.261719 120.605469 141 120.996094 C 140.730469 121.382812 140.449219 121.769531 140.160156 122.15625 C 139.582031 122.921875 138.972656 123.664062 138.339844 124.386719 C 137.058594 125.820312 135.660156 127.15625 134.132812 128.308594 C 132.605469 129.457031 130.9375 130.417969 129.164062 131.066406 C 128.277344 131.386719 127.363281 131.628906 126.433594 131.769531 C 125.964844 131.839844 125.5 131.886719 125.027344 131.90625 L 124.859375 131.914062 L 124.339844 131.914062 C 124.117188 131.90625 123.886719 131.886719 123.652344 131.863281 C 121.808594 131.65625 119.945312 130.960938 118.199219 130.085938 C 116.4375 129.199219 114.761719 128.121094 113.144531 126.945312 C 109.925781 124.589844 106.929688 121.890625 104.195312 118.988281 L 104.183594 118.976562 C 104.09375 118.878906 103.9375 118.871094 103.832031 118.953125 C 103.722656 119.046875 103.699219 119.199219 103.796875 119.308594 C 106.382812 122.40625 109.222656 125.289062 112.367188 127.894531 C 113.945312 129.191406 115.609375 130.402344 117.417969 131.449219 C 119.222656 132.484375 121.179688 133.382812 123.378906 133.753906 C 123.644531 133.800781 123.925781 133.84375 124.207031 133.867188 C 124.34375 133.875 124.484375 133.886719 124.636719 133.894531 L 124.839844 133.90625 L 125.050781 133.910156 C 125.597656 133.917969 126.148438 133.894531 126.695312 133.84375 C 127.785156 133.746094 128.863281 133.523438 129.914062 133.214844 C 132.003906 132.589844 133.941406 131.605469 135.714844 130.429688 C 137.488281 129.246094 139.097656 127.878906 140.582031 126.394531 C 141.320312 125.65625 142.03125 124.890625 142.710938 124.085938 C 142.886719 123.886719 143.050781 123.679688 143.21875 123.46875 C 143.386719 123.675781 143.550781 123.882812 143.722656 124.082031 C 144.410156 124.875 145.125 125.640625 145.871094 126.375 C 147.359375 127.84375 148.984375 129.199219 150.765625 130.371094 C 152.542969 131.535156 154.488281 132.507812 156.578125 133.117188 C 157.625 133.421875 158.707031 133.632812 159.796875 133.726562 C 160.339844 133.773438 160.890625 133.789062 161.433594 133.777344 C 161.992188 133.765625 162.558594 133.703125 163.105469 133.613281 C 165.292969 133.226562 167.242188 132.316406 169.035156 131.269531 C 170.824219 130.214844 172.480469 128.988281 174.046875 127.6875 C 177.171875 125.058594 179.992188 122.160156 182.558594 119.050781 L 182.535156 118.792969 " fill-opacity="1" fill-rule="nonzero"/><path fill="rgb(95.289612%, 66.668701%, 27.449036%)" d="M 299.183594 241.753906 C 278.816406 237.375 230.210938 232.671875 205.46875 273.398438 C 205.234375 273.78125 204.996094 274.15625 204.757812 274.519531 L 204.730469 274.417969 C 204.632812 274.621094 204.527344 274.820312 204.433594 275.015625 C 204.246094 275.292969 204.058594 275.574219 203.867188 275.84375 L 203.875 276.074219 C 190.53125 300.257812 151.671875 297.988281 151.671875 297.988281 C 146.746094 281.035156 119.894531 278.539062 124.839844 295.574219 C 126.65625 301.820312 129.382812 311.207031 129.382812 311.207031 C 133.890625 323.765625 141.5 322.554688 149.25 321.347656 C 152.5 320.835938 155.777344 320.332031 158.859375 320.835938 C 171.976562 323.003906 188.804688 324.117188 198.46875 322.945312 C 200.136719 322.738281 207.191406 320.804688 208.292969 319.839844 C 208.292969 319.851562 209.46875 319.347656 210.964844 318.851562 C 212.871094 318.207031 215.285156 317.566406 216.441406 317.988281 C 274.984375 339.492188 324.113281 327.339844 330.105469 287.636719 C 332.976562 268.601562 317.722656 245.734375 299.183594 241.753906 " fill-opacity="1" fill-rule="nonzero"/><path fill="rgb(100%, 100%, 100%)" d="M 330.453125 282.871094 C 330.453125 282.554688 330.449219 282.242188 330.441406 281.925781 C 330.445312 281.925781 330.441406 281.925781 330.445312 281.925781 C 330.453125 282.242188 330.457031 282.554688 330.453125 282.871094 " fill-opacity="1" fill-rule="nonzero"/><path fill="rgb(96.859741%, 73.728943%, 38.038635%)" d="M 174.15625 295.785156 C 185.34375 292.25 197.726562 287.171875 203.875 276.03125 L 203.875 276.074219 C 197.472656 287.671875 185.195312 293.1875 174.15625 295.785156 M 203.867188 275.84375 L 203.867188 275.800781 C 204.058594 275.535156 204.246094 275.253906 204.433594 274.976562 C 204.527344 274.777344 204.632812 274.582031 204.730469 274.378906 L 204.757812 274.484375 C 204.996094 274.113281 205.234375 273.738281 205.46875 273.355469 C 222.378906 245.523438 250.433594 238.90625 273 238.90625 C 274.679688 238.90625 276.324219 238.945312 277.929688 239.011719 C 277.933594 239.023438 277.933594 239.039062 277.9375 239.050781 C 276.328125 238.984375 274.683594 238.949219 273.003906 238.949219 C 250.4375 238.949219 222.378906 245.558594 205.46875 273.398438 C 205.234375 273.78125 204.996094 274.15625 204.757812 274.519531 L 204.730469 274.417969 C 204.632812 274.621094 204.527344 274.820312 204.433594 275.015625 C 204.246094 275.292969 204.058594 275.574219 203.867188 275.84375 " fill-opacity="1" fill-rule="nonzero"/><path fill="rgb(95.289612%, 56.469727%, 31.759644%)" d="M 321.203125 256.976562 C 315.507812 249.382812 307.691406 243.582031 299.183594 241.753906 C 293.769531 240.589844 286.359375 239.402344 277.9375 239.050781 C 277.933594 239.039062 277.933594 239.023438 277.929688 239.011719 C 286.355469 239.359375 293.765625 240.550781 299.183594 241.710938 C 307.695312 243.542969 315.515625 249.355469 321.210938 256.945312 C 321.207031 256.957031 321.207031 256.96875 321.203125 256.976562 " fill-opacity="1" fill-rule="nonzero"/><path fill="rgb(96.859741%, 73.728943%, 38.038635%)" d="M 330.441406 281.925781 C 330.199219 273.269531 326.6875 264.292969 321.203125 256.976562 C 321.207031 256.96875 321.207031 256.957031 321.210938 256.945312 C 326.703125 264.273438 330.207031 273.253906 330.445312 281.925781 C 330.441406 281.925781 330.445312 281.925781 330.441406 281.925781 " fill-opacity="1" fill-rule="nonzero"/><path fill="rgb(96.859741%, 73.728943%, 38.038635%)" d="M 155.433594 309.148438 C 153.066406 309.148438 151.671875 309.066406 151.671875 309.066406 C 149.597656 301.933594 161.0625 299.917969 174.15625 295.785156 C 185.195312 293.1875 197.472656 287.671875 203.875 276.074219 L 203.875 276.03125 L 203.867188 275.84375 C 204.058594 275.574219 204.246094 275.292969 204.433594 275.015625 C 204.527344 274.820312 204.632812 274.621094 204.730469 274.417969 L 204.757812 274.519531 C 204.996094 274.15625 205.234375 273.78125 205.46875 273.398438 C 222.378906 245.558594 250.4375 238.949219 273.003906 238.949219 C 274.683594 238.949219 276.328125 238.984375 277.9375 239.050781 C 286.359375 239.402344 293.769531 240.589844 299.183594 241.753906 C 307.691406 243.582031 315.507812 249.382812 321.203125 256.976562 C 326.6875 264.292969 330.199219 273.269531 330.441406 281.925781 C 330.449219 282.242188 330.453125 282.554688 330.453125 282.871094 C 330.453125 284.464844 330.339844 286.039062 330.105469 287.59375 C 330.074219 287.828125 330.027344 288.0625 329.988281 288.289062 C 327.421875 272.125 310.757812 256.445312 295.515625 253.171875 C 289.078125 251.789062 280.675781 250.371094 271.414062 250.371094 C 251.402344 250.371094 227.378906 256.988281 210.472656 284.835938 C 210.234375 285.21875 209.996094 285.589844 209.761719 285.957031 L 209.726562 285.855469 C 209.636719 286.058594 209.53125 286.253906 209.425781 286.453125 C 209.242188 286.734375 209.058594 287.011719 208.867188 287.28125 L 208.875 287.507812 C 197.914062 307.378906 166.351562 309.148438 155.433594 309.148438 " fill-opacity="1" fill-rule="nonzero"/><path fill="rgb(100%, 100%, 100%)" d="M 176.105469 302.75 C 175.667969 300.679688 175.09375 297.632812 174.546875 295.585938 C 162.792969 296.875 151.675781 296.867188 151.675781 296.867188 C 146.652344 279.566406 118.816406 278.144531 123.863281 295.523438 C 125.71875 301.90625 128.503906 311.480469 128.503906 311.480469 C 135.027344 329.675781 148.28125 320.023438 158.921875 321.773438 C 163.753906 322.570312 170.097656 323.058594 176.398438 322.820312 C 177.5 316.15625 177.554688 309.632812 176.105469 302.75 " fill-opacity="1" fill-rule="nonzero"/><path fill="rgb(13.729858%, 12.159729%, 12.548828%)" d="M 123.8125 288.40625 C 125.179688 287.757812 126.691406 287.601562 128.175781 287.707031 C 129.667969 287.832031 131.164062 288.269531 132.507812 289.054688 C 133.851562 289.832031 135.019531 290.976562 135.78125 292.332031 C 136.542969 293.683594 136.902344 295.222656 136.707031 296.71875 C 135.742188 295.5625 134.894531 294.558594 133.964844 293.71875 C 133.054688 292.871094 132.089844 292.171875 131.042969 291.558594 C 130 290.945312 128.875 290.417969 127.667969 289.921875 C 126.460938 289.417969 125.199219 288.957031 123.8125 288.40625 " fill-opacity="1" fill-rule="nonzero"/><path fill="rgb(13.729858%, 12.159729%, 12.548828%)" d="M 131.070312 284.386719 C 132.238281 283.769531 133.585938 283.570312 134.925781 283.726562 C 136.261719 283.894531 137.613281 284.484375 138.675781 285.410156 C 139.746094 286.332031 140.488281 287.546875 140.890625 288.804688 C 141.292969 290.066406 141.394531 291.355469 141.148438 292.65625 C 140.234375 291.679688 139.5625 290.703125 138.863281 289.847656 C 138.179688 288.988281 137.507812 288.242188 136.769531 287.597656 C 136.03125 286.953125 135.230469 286.40625 134.285156 285.910156 C 133.324219 285.402344 132.277344 284.976562 131.070312 284.386719 " fill-opacity="1" fill-rule="nonzero"/><path fill="rgb(13.729858%, 12.159729%, 12.548828%)" d="M 124.753906 297.292969 C 125.921875 296.679688 127.269531 296.480469 128.605469 296.640625 C 129.949219 296.800781 131.296875 297.390625 132.359375 298.320312 C 133.429688 299.242188 134.171875 300.457031 134.574219 301.707031 C 134.972656 302.972656 135.078125 304.261719 134.832031 305.566406 C 133.917969 304.589844 133.25 303.613281 132.550781 302.757812 C 131.867188 301.894531 131.191406 301.148438 130.449219 300.507812 C 129.71875 299.867188 128.917969 299.320312 127.96875 298.816406 C 127.015625 298.308594 125.964844 297.882812 124.753906 297.292969 " fill-opacity="1" fill-rule="nonzero"/><path fill="rgb(95.289612%, 66.668701%, 27.449036%)" d="M 138.328125 208.578125 C 138.328125 221.117188 145.980469 231.054688 156.933594 252.320312 C 167.886719 273.59375 165.953125 283.824219 158.222656 301.871094 C 158.222656 301.871094 149.269531 300.023438 144.367188 308.636719 C 142.589844 311.765625 138.085938 322.816406 146.300781 322.816406 C 154.378906 322.816406 170.46875 321.765625 175.214844 321.765625 C 182.304688 321.765625 184.878906 315.324219 184.878906 305.011719 C 184.878906 295.992188 202.359375 275.523438 198.246094 268.277344 C 192.140625 257.484375 191.003906 256.269531 192.695312 249.90625 C 196.28125 236.410156 202.980469 222.097656 203.570312 203.019531 C 204.050781 187.308594 190.039062 160.8125 167.789062 160.8125 C 151.859375 160.8125 138.328125 172.734375 138.328125 208.578125 " fill-opacity="1" fill-rule="nonzero"/><path fill="rgb(100%, 100%, 100%)" d="M 186.996094 291.933594 C 183.15625 286.519531 179.308594 280.023438 172.671875 277.714844 C 170.0625 276.808594 167.371094 276.453125 164.609375 276.289062 C 164.125 284.320312 161.960938 291.164062 157.738281 301.019531 C 157.738281 301.019531 148.765625 300.027344 143.71875 308.910156 C 141.886719 312.140625 137.238281 323.542969 145.710938 323.542969 C 154.046875 323.542969 169.832031 323.578125 174.734375 323.578125 C 182.042969 323.578125 185.511719 315.8125 185.511719 305.171875 C 185.511719 302.464844 186.886719 297.886719 188.949219 293.808594 C 188.222656 292.917969 187.667969 292.875 186.996094 291.933594 " fill-opacity="1" fill-rule="nonzero"/><path fill="rgb(13.729858%, 12.159729%, 12.548828%)" d="M 144.453125 322.933594 C 144.207031 321.433594 144.476562 319.9375 144.996094 318.539062 C 145.527344 317.148438 146.371094 315.832031 147.5 314.757812 C 148.621094 313.683594 150.042969 312.875 151.558594 312.527344 C 153.066406 312.175781 154.644531 312.257812 156.023438 312.863281 C 154.648438 313.46875 153.449219 314 152.378906 314.65625 C 151.3125 315.296875 150.378906 316.027344 149.492188 316.863281 C 148.613281 317.699219 147.792969 318.628906 146.980469 319.648438 C 146.164062 320.664062 145.367188 321.75 144.453125 322.933594 " fill-opacity="1" fill-rule="nonzero"/><path fill="rgb(13.729858%, 12.159729%, 12.548828%)" d="M 142.621094 314.835938 C 142.351562 313.542969 142.535156 312.191406 143.058594 310.953125 C 143.589844 309.710938 144.535156 308.582031 145.71875 307.820312 C 146.90625 307.050781 148.28125 306.671875 149.59375 306.636719 C 150.914062 306.597656 152.183594 306.863281 153.371094 307.464844 C 152.175781 308.066406 151.050781 308.445312 150.035156 308.875 C 149.011719 309.296875 148.113281 309.730469 147.289062 310.253906 C 146.472656 310.785156 145.714844 311.402344 144.972656 312.175781 C 144.21875 312.953125 143.515625 313.835938 142.621094 314.835938 " fill-opacity="1" fill-rule="nonzero"/><path fill="rgb(13.729858%, 12.159729%, 12.548828%)" d="M 153.734375 323.417969 C 153.464844 322.121094 153.648438 320.773438 154.175781 319.535156 C 154.710938 318.292969 155.644531 317.160156 156.835938 316.398438 C 158.019531 315.628906 159.394531 315.25 160.707031 315.21875 C 162.027344 315.179688 163.296875 315.445312 164.484375 316.042969 C 163.289062 316.644531 162.167969 317.019531 161.152344 317.453125 C 160.128906 317.871094 159.21875 318.3125 158.402344 318.835938 C 157.582031 319.367188 156.835938 319.984375 156.089844 320.757812 C 155.335938 321.53125 154.628906 322.414062 153.734375 323.417969 " fill-opacity="1" fill-rule="nonzero"/><path fill="rgb(74.119568%, 73.728943%, 73.728943%)" d="M 140.632812 326.664062 C 136.453125 326.664062 130.164062 326.664062 130.164062 326.664062 C 118.015625 325.90625 121.859375 316.316406 118.933594 310.183594 C 100.097656 270.792969 116.921875 238.402344 129.464844 240.726562 C 136.757812 242.078125 141.390625 250.246094 140.027344 258.199219 C 138.109375 269.414062 134.933594 310.339844 134.933594 310.339844 C 146.28125 310.339844 152.035156 326.664062 140.632812 326.664062 " fill-opacity="1" fill-rule="nonzero"/><path fill="rgb(13.729858%, 12.159729%, 12.548828%)" d="M 146.304688 323.484375 C 146.460938 322.722656 146.296875 321.984375 146.007812 321.308594 C 145.703125 320.636719 145.242188 320.023438 144.648438 319.546875 C 143.476562 318.589844 141.761719 318.21875 140.398438 318.933594 C 141.046875 319.355469 141.589844 319.671875 142.089844 320.007812 C 142.585938 320.332031 143.03125 320.660156 143.472656 321.011719 C 143.90625 321.367188 144.339844 321.738281 144.792969 322.152344 C 145.253906 322.558594 145.722656 323 146.304688 323.484375 " fill-opacity="1" fill-rule="nonzero"/><path fill="rgb(13.729858%, 12.159729%, 12.548828%)" d="M 142.21875 326.34375 C 142.511719 325.628906 142.480469 324.867188 142.308594 324.152344 C 142.117188 323.441406 141.734375 322.757812 141.191406 322.210938 C 140.113281 321.097656 138.414062 320.625 137.03125 321.246094 C 137.632812 321.714844 138.160156 322.0625 138.613281 322.425781 C 139.078125 322.785156 139.472656 323.144531 139.855469 323.527344 C 140.234375 323.914062 140.597656 324.332031 140.976562 324.792969 L 142.21875 326.34375 " fill-opacity="1" fill-rule="nonzero"/><path fill="rgb(100%, 100%, 100%)" d="M 126.832031 208.769531 C 127.691406 212.550781 128 216.503906 128.027344 220.332031 C 128.082031 228.75 129.988281 273.753906 69.734375 297.402344 C 56.703125 302.515625 44.363281 309.726562 30.886719 313.15625 C 30.296875 313.304688 29.683594 313.46875 29.058594 313.632812 C 29.894531 315.070312 30.792969 316.46875 31.792969 317.804688 L 108.597656 317.804688 C 121.5 313.914062 140.761719 280.289062 140.761719 262.945312 C 140.761719 235.386719 140.761719 214.722656 140.761719 214.722656 L 126.832031 208.769531 " fill-opacity="1" fill-rule="nonzero"/><path fill="rgb(74.119568%, 73.728943%, 73.728943%)" d="M 95.78125 195.496094 C 95.78125 195.496094 99.617188 216.765625 61.285156 233.558594 C 40.929688 242.476562 28.660156 259.21875 24.523438 276.554688 C 21.359375 274.183594 17.625 270.246094 19.34375 265.667969 C 19.890625 264.203125 20.644531 262.410156 21.507812 260.335938 C 24.808594 252.441406 29.320312 241.628906 30.523438 230.792969 C 32.515625 212.914062 24.144531 203.984375 16.773438 199.636719 C 13.929688 197.953125 10.25 198.910156 8.566406 201.761719 C 6.886719 204.609375 7.839844 208.289062 10.6875 209.964844 C 24.652344 218.199219 17.886719 237.894531 10.449219 255.714844 C 9.535156 257.894531 8.746094 259.78125 8.117188 261.453125 C 2.84375 275.535156 15.410156 286.003906 22.957031 289.664062 C 22.941406 300.007812 25.871094 309.914062 31.792969 317.804688 L 108.597656 317.804688 C 121.5 313.914062 140.761719 280.289062 140.761719 262.945312 C 140.761719 235.386719 140.761719 214.722656 140.761719 214.722656 L 95.78125 195.496094 " fill-opacity="1" fill-rule="nonzero"/><path fill="rgb(74.119568%, 73.728943%, 73.728943%)" d="M 126.054688 326.664062 C 121.871094 326.664062 115.589844 326.664062 115.589844 326.664062 C 103.433594 325.90625 107.285156 316.316406 104.355469 310.183594 C 85.53125 270.792969 102.34375 238.402344 114.886719 240.726562 C 122.179688 242.078125 126.808594 250.246094 125.457031 258.199219 C 123.535156 269.414062 120.355469 310.339844 120.355469 310.339844 C 131.703125 310.339844 137.457031 326.664062 126.054688 326.664062 " fill-opacity="1" fill-rule="nonzero"/><path fill="rgb(13.729858%, 12.159729%, 12.548828%)" d="M 131.726562 323.484375 C 131.882812 322.722656 131.71875 321.984375 131.425781 321.308594 C 131.125 320.636719 130.664062 320.023438 130.070312 319.546875 C 128.894531 318.589844 127.183594 318.21875 125.828125 318.933594 C 126.46875 319.355469 127.015625 319.671875 127.511719 320.007812 C 128.003906 320.332031 128.453125 320.660156 128.890625 321.011719 C 129.332031 321.367188 129.765625 321.738281 130.222656 322.152344 C 130.675781 322.558594 131.152344 323 131.726562 323.484375 " fill-opacity="1" fill-rule="nonzero"/><path fill="rgb(13.729858%, 12.159729%, 12.548828%)" d="M 127.648438 326.34375 C 127.933594 325.628906 127.910156 324.867188 127.726562 324.152344 C 127.542969 323.441406 127.160156 322.757812 126.621094 322.210938 C 125.539062 321.097656 123.835938 320.625 122.457031 321.246094 C 123.058594 321.714844 123.582031 322.0625 124.035156 322.425781 C 124.5 322.785156 124.890625 323.144531 125.28125 323.527344 C 125.65625 323.914062 126.019531 324.332031 126.398438 324.792969 L 127.648438 326.34375 " fill-opacity="1" fill-rule="nonzero"/><path fill="rgb(74.119568%, 73.728943%, 73.728943%)" d="M 92.847656 167.835938 C 92.847656 167.835938 87.578125 144.5 98.308594 137.203125 C 98.308594 137.203125 115.328125 140.332031 120.03125 153.386719 C 120.03125 153.386719 110.152344 166.378906 92.847656 167.835938 " fill-opacity="1" fill-rule="nonzero"/><path fill="rgb(100%, 100%, 100%)" d="M 99.019531 165.28125 C 99.019531 165.28125 95.671875 150.464844 102.480469 145.828125 C 102.480469 145.828125 113.296875 147.816406 116.273438 156.101562 C 116.273438 156.101562 110.007812 164.359375 99.019531 165.28125 " fill-opacity="1" fill-rule="nonzero"/><path fill="rgb(74.119568%, 73.728943%, 73.728943%)" d="M 162.082031 182.851562 C 162.082031 182.851562 176.542969 163.796875 169.800781 152.714844 C 169.800781 152.714844 153.015625 148.515625 143.332031 158.441406 C 143.332031 158.441406 146.941406 174.359375 162.082031 182.851562 " fill-opacity="1" fill-rule="nonzero"/><path fill="rgb(100%, 100%, 100%)" d="M 157.53125 177.976562 C 157.53125 177.976562 166.714844 165.875 162.433594 158.832031 C 162.433594 158.832031 151.769531 156.164062 145.621094 162.46875 C 145.621094 162.46875 147.910156 172.578125 157.53125 177.976562 " fill-opacity="1" fill-rule="nonzero"/><path fill="rgb(74.119568%, 73.728943%, 73.728943%)" d="M 84.335938 180.566406 C 76.378906 199.148438 96.425781 211.46875 118.558594 216.273438 C 140.695312 221.070312 165.089844 218.132812 164.5 197.949219 C 163.816406 174.960938 149.15625 157.097656 132.1875 153.417969 C 115.222656 149.738281 93.722656 158.671875 84.335938 180.566406 " fill-opacity="1" fill-rule="nonzero"/><path fill="rgb(100%, 100%, 100%)" d="M 125.789062 183.414062 C 144.511719 187.476562 157.628906 200.222656 155.105469 211.886719 C 154.867188 212.960938 154.507812 213.980469 154.042969 214.953125 C 145.003906 219.234375 131.402344 219.054688 118.558594 216.273438 C 105.585938 213.457031 93.339844 208.054688 87.019531 200.328125 C 87.003906 199.28125 87.101562 198.226562 87.328125 197.191406 C 89.855469 185.523438 107.078125 179.351562 125.789062 183.414062 " fill-opacity="1" fill-rule="nonzero"/><path fill="rgb(13.729858%, 12.159729%, 12.548828%)" d="M 103.753906 173.570312 C 103.066406 176.207031 103.863281 178.699219 105.539062 179.140625 C 107.210938 179.570312 109.125 177.789062 109.808594 175.148438 C 110.507812 172.519531 109.707031 170.023438 108.027344 169.589844 C 106.359375 169.152344 104.445312 170.933594 103.753906 173.570312 " fill-opacity="1" fill-rule="nonzero"/><path fill="rgb(13.729858%, 12.159729%, 12.548828%)" d="M 147.792969 185.070312 C 147.101562 187.707031 147.902344 190.199219 149.578125 190.636719 C 151.246094 191.074219 153.160156 189.292969 153.851562 186.652344 C 154.542969 184.019531 153.738281 181.523438 152.066406 181.089844 C 150.394531 180.65625 148.480469 182.4375 147.792969 185.070312 " fill-opacity="1" fill-rule="nonzero"/><path fill="rgb(97.24884%, 63.919067%, 83.918762%)" d="M 124.144531 209.414062 L 123.777344 211.007812 C 123.359375 212.796875 121.578125 213.910156 119.785156 213.492188 C 118 213.078125 116.886719 211.292969 117.300781 209.503906 L 117.652344 208.003906 C 117.652344 208.003906 119.265625 207.839844 120.367188 206.644531 C 121.53125 205.382812 121.949219 205.074219 122.402344 206.8125 C 122.90625 208.78125 124.144531 209.414062 124.144531 209.414062 " fill-opacity="1" fill-rule="nonzero"/><path fill="rgb(13.729858%, 12.159729%, 12.548828%)" d="M 129.726562 203.261719 L 129.4375 203.230469 C 128.832031 203.230469 128.308594 203.644531 128.171875 204.234375 L 127.640625 206.515625 C 127.53125 206.988281 127.269531 207.390625 126.917969 207.636719 C 126.429688 207.976562 125.757812 208.042969 124.886719 207.839844 C 124.117188 207.664062 123.667969 207.226562 123.441406 206.433594 C 123.214844 205.65625 123.300781 204.832031 123.355469 204.484375 C 123.402344 204.34375 123.429688 204.214844 123.453125 204.140625 L 125.53125 195.171875 L 125.644531 194.488281 L 123.132812 193.917969 L 120.898438 203.550781 L 120.84375 203.8125 C 120.703125 204.320312 120.417969 205.035156 119.898438 205.613281 C 119.335938 206.226562 118.75 206.410156 117.976562 206.234375 C 117.15625 206.046875 116.585938 205.699219 116.28125 205.214844 C 115.960938 204.695312 116.023438 204.121094 116.09375 203.832031 L 116.617188 201.558594 C 116.695312 201.226562 116.640625 200.875 116.457031 200.578125 C 116.273438 200.277344 115.988281 200.078125 115.640625 199.996094 C 114.957031 199.839844 114.246094 200.28125 114.089844 200.972656 L 113.5625 203.242188 C 113.070312 205.367188 114.0625 207.996094 117.394531 208.769531 C 118.785156 209.089844 120.140625 208.796875 121.230469 207.917969 C 121.824219 209.183594 122.890625 210.046875 124.304688 210.371094 C 124.808594 210.488281 125.304688 210.546875 125.769531 210.546875 C 127.019531 210.546875 127.886719 210.128906 128.398438 209.773438 C 129.589844 208.941406 130.019531 207.742188 130.175781 207.097656 L 130.695312 204.824219 C 130.859375 204.132812 130.425781 203.429688 129.726562 203.261719 " fill-opacity="1" fill-rule="nonzero"/><path fill="rgb(13.729858%, 12.159729%, 12.548828%)" d="M 114.679688 190.878906 C 113.871094 194.359375 117.625 198.207031 123.058594 199.46875 C 128.503906 200.734375 133.566406 198.929688 134.371094 195.445312 C 135.179688 191.964844 131.425781 188.109375 125.988281 186.855469 C 120.550781 185.589844 115.484375 187.394531 114.679688 190.878906 " fill-opacity="1" fill-rule="nonzero"/><path fill="rgb(13.729858%, 12.159729%, 12.548828%)" d="M 112.910156 187.125 C 113.117188 187.125 113.324219 187.039062 113.460938 186.859375 C 113.707031 186.550781 113.652344 186.101562 113.347656 185.859375 C 113.148438 185.707031 93.816406 170.605469 74.511719 170.824219 C 74.121094 170.828125 73.800781 171.152344 73.808594 171.542969 C 73.8125 171.9375 74.132812 172.246094 74.519531 172.246094 L 74.527344 172.246094 C 74.675781 172.246094 74.828125 172.246094 74.972656 172.246094 C 93.605469 172.246094 112.28125 186.824219 112.46875 186.976562 C 112.597656 187.074219 112.753906 187.125 112.910156 187.125 " fill-opacity="1" fill-rule="nonzero"/><path fill="rgb(13.729858%, 12.159729%, 12.548828%)" d="M 111.320312 188.988281 C 111.566406 188.988281 111.804688 188.859375 111.933594 188.628906 C 112.128906 188.285156 112.015625 187.851562 111.675781 187.660156 C 111.445312 187.53125 88.695312 174.621094 68.945312 175.625 C 68.554688 175.636719 68.257812 175.976562 68.273438 176.367188 C 68.296875 176.757812 68.636719 177.0625 69.019531 177.035156 C 88.34375 176.050781 110.746094 188.765625 110.96875 188.890625 C 111.082031 188.953125 111.203125 188.988281 111.320312 188.988281 " fill-opacity="1" fill-rule="nonzero"/><path fill="rgb(13.729858%, 12.159729%, 12.548828%)" d="M 110.65625 191.386719 C 110.917969 191.386719 111.167969 191.246094 111.292969 190.996094 C 111.46875 190.648438 111.324219 190.222656 110.984375 190.042969 C 110.800781 189.949219 92.425781 180.769531 70.949219 182.054688 C 70.558594 182.078125 70.257812 182.414062 70.277344 182.804688 C 70.304688 183.199219 70.644531 183.503906 71.03125 183.472656 C 92.109375 182.21875 110.15625 191.214844 110.335938 191.3125 C 110.4375 191.363281 110.550781 191.386719 110.65625 191.386719 " fill-opacity="1" fill-rule="nonzero"/><path fill="rgb(13.729858%, 12.159729%, 12.548828%)" d="M 110.289062 193.757812 C 110.59375 193.757812 110.878906 193.5625 110.96875 193.257812 C 111.082031 192.882812 110.878906 192.484375 110.507812 192.371094 C 110.328125 192.320312 92.742188 186.929688 77.472656 188.488281 C 77.085938 188.523438 76.800781 188.871094 76.839844 189.261719 C 76.878906 189.65625 77.21875 189.941406 77.617188 189.898438 C 92.605469 188.375 109.90625 193.671875 110.082031 193.726562 L 110.289062 193.757812 " fill-opacity="1" fill-rule="nonzero"/><path fill="rgb(13.729858%, 12.159729%, 12.548828%)" d="M 177.234375 203.339844 C 177.460938 203.339844 177.683594 203.234375 177.824219 203.035156 C 178.046875 202.710938 177.964844 202.269531 177.644531 202.046875 C 161.75 191.117188 137.253906 192.914062 137.007812 192.9375 C 136.617188 192.964844 136.328125 193.3125 136.355469 193.699219 C 136.386719 194.089844 136.710938 194.378906 137.121094 194.351562 C 137.351562 194.335938 161.367188 192.574219 176.839844 203.21875 C 176.960938 203.300781 177.097656 203.339844 177.234375 203.339844 " fill-opacity="1" fill-rule="nonzero"/><path fill="rgb(13.729858%, 12.159729%, 12.548828%)" d="M 179.007812 210.371094 C 179.226562 210.371094 179.441406 210.28125 179.578125 210.09375 C 179.816406 209.777344 179.75 209.332031 179.433594 209.097656 C 163.585938 197.277344 137.492188 195.347656 137.226562 195.332031 C 136.84375 195.308594 136.5 195.59375 136.472656 195.988281 C 136.449219 196.378906 136.742188 196.722656 137.136719 196.742188 C 137.390625 196.765625 163.078125 198.664062 178.582031 210.238281 C 178.714844 210.328125 178.863281 210.371094 179.007812 210.371094 " fill-opacity="1" fill-rule="nonzero"/><path fill="rgb(13.729858%, 12.159729%, 12.548828%)" d="M 173.816406 214.722656 C 174.035156 214.722656 174.25 214.621094 174.386719 214.4375 C 174.625 214.125 174.5625 213.683594 174.25 213.445312 C 157.121094 200.441406 136.742188 197.835938 136.535156 197.8125 C 136.148438 197.765625 135.792969 198.042969 135.746094 198.425781 C 135.699219 198.816406 135.976562 199.171875 136.367188 199.21875 C 136.566406 199.242188 156.582031 201.808594 173.390625 214.570312 C 173.519531 214.675781 173.664062 214.722656 173.816406 214.722656 " fill-opacity="1" fill-rule="nonzero"/><path fill="rgb(13.729858%, 12.159729%, 12.548828%)" d="M 164.558594 216.316406 C 164.765625 216.316406 164.972656 216.226562 165.109375 216.058594 C 165.355469 215.757812 165.3125 215.308594 165.011719 215.058594 C 153.191406 205.269531 135.578125 199.960938 135.40625 199.910156 C 135.023438 199.792969 134.632812 200.011719 134.519531 200.390625 C 134.40625 200.761719 134.625 201.160156 134.996094 201.273438 C 135.171875 201.320312 152.511719 206.546875 164.105469 216.152344 C 164.238281 216.261719 164.398438 216.316406 164.558594 216.316406 " fill-opacity="1" fill-rule="nonzero"/><path fill="rgb(74.119568%, 73.728943%, 73.728943%)" d="M 37.367188 282.132812 C 47.214844 279.792969 70.714844 277.277344 82.683594 299.046875 C 82.792969 299.253906 82.90625 299.457031 83.023438 299.648438 L 83.039062 299.59375 C 83.085938 299.703125 83.132812 299.8125 83.179688 299.914062 C 83.273438 300.066406 83.359375 300.214844 83.453125 300.359375 L 83.453125 300.480469 C 89.898438 313.40625 108.695312 312.191406 108.695312 312.191406 C 111.074219 303.128906 124.058594 301.796875 121.671875 310.902344 C 120.789062 314.242188 119.46875 319.257812 119.46875 319.257812 C 117.292969 325.976562 113.609375 325.328125 109.859375 324.675781 C 108.292969 324.40625 106.710938 324.132812 105.21875 324.40625 C 98.871094 325.5625 90.738281 326.160156 86.066406 325.53125 C 85.261719 325.425781 81.847656 324.390625 81.3125 323.871094 C 81.3125 323.878906 80.746094 323.613281 80.023438 323.34375 C 79.101562 323.003906 77.933594 322.660156 77.375 322.886719 C 49.070312 334.378906 25.308594 327.882812 22.421875 306.660156 C 21.027344 296.484375 28.40625 284.265625 37.367188 282.132812 " fill-opacity="1" fill-rule="nonzero"/><path fill="rgb(100%, 100%, 100%)" d="M 22.25 304.109375 C 22.25 301.726562 22.675781 299.285156 23.441406 296.929688 C 23.441406 296.933594 23.445312 296.945312 23.445312 296.949219 C 22.679688 299.292969 22.25 301.730469 22.25 304.109375 " fill-opacity="1" fill-rule="nonzero"/><path fill="rgb(80.389404%, 79.998779%, 79.998779%)" d="M 104.910156 312.136719 C 104.027344 312.078125 103.019531 311.984375 101.9375 311.828125 C 102.953125 311.96875 103.953125 312.066406 104.910156 312.136719 M 94.167969 309.824219 C 89.953125 308.140625 85.851562 305.285156 83.453125 300.480469 L 83.453125 300.359375 C 83.359375 300.214844 83.273438 300.066406 83.179688 299.914062 C 83.132812 299.8125 83.085938 299.703125 83.039062 299.59375 L 83.023438 299.648438 C 82.90625 299.457031 82.792969 299.253906 82.683594 299.046875 C 74.503906 284.171875 60.9375 280.636719 50.027344 280.636719 C 44.972656 280.636719 40.484375 281.394531 37.367188 282.132812 C 31.1875 283.601562 25.761719 289.863281 23.445312 296.949219 C 23.445312 296.945312 23.441406 296.933594 23.441406 296.929688 C 25.761719 289.847656 31.1875 283.582031 37.367188 282.113281 C 40.484375 281.375 44.972656 280.613281 50.027344 280.613281 C 60.9375 280.613281 74.503906 284.144531 82.683594 299.027344 C 82.792969 299.230469 82.90625 299.429688 83.023438 299.628906 L 83.039062 299.578125 C 83.085938 299.683594 83.132812 299.785156 83.179688 299.894531 C 83.273438 300.039062 83.359375 300.191406 83.453125 300.335938 L 83.453125 300.457031 C 85.472656 304.496094 88.703125 307.203125 92.371094 309.015625 C 92.972656 309.3125 93.570312 309.578125 94.167969 309.824219 " fill-opacity="1" fill-rule="nonzero"/><path fill="rgb(80.389404%, 79.998779%, 79.998779%)" d="M 96.640625 315.496094 C 91.203125 315.496094 85.101562 313.546875 81.035156 306.589844 L 81.035156 306.46875 C 80.945312 306.324219 80.855469 306.175781 80.761719 306.03125 C 80.71875 305.921875 80.667969 305.816406 80.621094 305.710938 L 80.605469 305.761719 C 80.492188 305.5625 80.378906 305.367188 80.265625 305.164062 C 72.089844 290.28125 60.472656 286.742188 50.792969 286.742188 C 46.316406 286.742188 42.25 287.496094 39.132812 288.242188 C 31.773438 289.988281 23.710938 298.367188 22.46875 307.011719 C 22.449219 306.886719 22.433594 306.761719 22.421875 306.640625 C 22.304688 305.808594 22.25 304.960938 22.25 304.109375 C 22.25 301.730469 22.679688 299.292969 23.445312 296.949219 C 25.761719 289.863281 31.1875 283.601562 37.367188 282.132812 C 40.484375 281.394531 44.972656 280.636719 50.027344 280.636719 C 60.9375 280.636719 74.503906 284.171875 82.683594 299.046875 C 82.792969 299.253906 82.90625 299.457031 83.023438 299.648438 L 83.039062 299.59375 C 83.085938 299.703125 83.132812 299.8125 83.179688 299.914062 C 83.273438 300.066406 83.359375 300.214844 83.453125 300.359375 L 83.453125 300.480469 C 85.851562 305.285156 89.953125 308.140625 94.167969 309.824219 C 96.820312 310.902344 99.449219 311.492188 101.9375 311.828125 C 103.019531 311.984375 104.027344 312.078125 104.910156 312.136719 C 106.226562 312.234375 107.476562 312.285156 108.644531 312.324219 C 109.394531 312.355469 103.550781 315.496094 96.640625 315.496094 " fill-opacity="1" fill-rule="nonzero"/><path fill="rgb(13.729858%, 12.159729%, 12.548828%)" d="M 122.164062 307.074219 C 121.5 306.722656 120.773438 306.640625 120.054688 306.699219 C 119.328125 306.765625 118.609375 307 117.964844 307.417969 C 117.308594 307.835938 116.742188 308.445312 116.375 309.167969 C 116.007812 309.890625 115.832031 310.71875 115.929688 311.515625 C 116.394531 310.894531 116.800781 310.359375 117.253906 309.910156 C 117.699219 309.457031 118.160156 309.082031 118.664062 308.757812 C 119.175781 308.429688 119.71875 308.148438 120.296875 307.882812 C 120.878906 307.613281 121.492188 307.367188 122.164062 307.074219 " fill-opacity="1" fill-rule="nonzero"/><path fill="rgb(13.729858%, 12.159729%, 12.548828%)" d="M 118.652344 304.925781 C 118.089844 304.59375 117.4375 304.488281 116.789062 304.570312 C 116.144531 304.660156 115.488281 304.976562 114.972656 305.472656 C 114.460938 305.960938 114.101562 306.613281 113.90625 307.28125 C 113.710938 307.957031 113.65625 308.648438 113.785156 309.34375 C 114.226562 308.824219 114.546875 308.300781 114.878906 307.84375 C 115.214844 307.382812 115.539062 306.984375 115.898438 306.640625 C 116.253906 306.296875 116.644531 306.003906 117.101562 305.738281 C 117.5625 305.46875 118.070312 305.238281 118.652344 304.925781 " fill-opacity="1" fill-rule="nonzero"/><path fill="rgb(13.729858%, 12.159729%, 12.548828%)" d="M 121.707031 311.824219 C 121.144531 311.496094 120.492188 311.390625 119.847656 311.472656 C 119.195312 311.5625 118.542969 311.875 118.03125 312.371094 C 117.511719 312.863281 117.15625 313.515625 116.960938 314.183594 C 116.761719 314.859375 116.710938 315.542969 116.832031 316.246094 C 117.277344 315.722656 117.601562 315.203125 117.941406 314.742188 C 118.269531 314.28125 118.597656 313.882812 118.953125 313.539062 C 119.304688 313.199219 119.691406 312.90625 120.15625 312.636719 C 120.613281 312.367188 121.121094 312.136719 121.707031 311.824219 " fill-opacity="1" fill-rule="nonzero"/></svg>